<svg xmlns="http://www.w3.org/2000/svg" width="1200" height="675" viewBox="0 0 1200 675"><defs><linearGradient id="g" x1="0%" y1="0%" x2="100%" y2="100%"><stop offset="0%" style="stop-color:#3498db"/><stop offset="100%" style="stop-color:#82b1ff"/></linearGradient><linearGradient id="g2" x1="100%" y1="0%" x2="0%" y2="100%"><stop offset="0%" style="stop-color:#82b1ff"/><stop offset="100%" style="stop-color:#3498db"/></linearGradient><linearGradient id="ol" x1="0%" y1="0%" x2="0%" y2="100%"><stop offset="0%" style="stop-color:rgba(255,255,255,0.12)"/><stop offset="100%" style="stop-color:rgba(0,0,0,0.08)"/></linearGradient></defs><rect width="1200" height="675" fill="url(#g)"/><rect width="1200" height="675" fill="url(#ol)"/><circle cx="96" cy="54" r="300" fill="rgba(255,255,255,0.03)"/><circle cx="1104" cy="621" r="360" fill="rgba(255,255,255,0.03)"/><circle cx="1080" cy="54" r="120" fill="rgba(255,255,255,0.03)"/><circle cx="120" cy="607.5" r="144" fill="rgba(255,255,255,0.03)"/><g transform="translate(0, -40)"><circle cx="600" cy="183" r="32.5" fill="url(#g)" opacity="0.85"/>
  <circle cx="590.25" cy="176.5" r="2.5" fill="rgba(255,255,255,0.7)"/>
  <circle cx="609.75" cy="176.5" r="2.5" fill="rgba(255,255,255,0.7)"/>
  <path d="M591.875 196 Q600 209, 608.125 196" fill="none" stroke="rgba(255,255,255,0.7)" stroke-width="2" stroke-linecap="round"/>
  <path d="M561 241.5 Q600 261, 639 241.5" fill="none" stroke="url(#g)" stroke-width="2.5" opacity="0.6"/></g><g><circle cx="360" cy="465.74999999999994" r="11.25" fill="url(#g2)" opacity="0.85"/>
  <circle cx="356.625" cy="463.49999999999994" r="2.5" fill="rgba(255,255,255,0.7)"/>
  <circle cx="363.375" cy="463.49999999999994" r="2.5" fill="rgba(255,255,255,0.7)"/>
  <path d="M357.1875 470.24999999999994 Q360 474.74999999999994, 362.8125 470.24999999999994" fill="none" stroke="rgba(255,255,255,0.7)" stroke-width="2" stroke-linecap="round"/>
  <path d="M346.5 485.99999999999994 Q360 492.74999999999994, 373.5 485.99999999999994" fill="none" stroke="url(#g2)" stroke-width="2.5" opacity="0.6"/></g><g><path d="M840 463.49999999999994 C840 449.99999999999994, 817.5 445.49999999999994, 808.5 454.49999999999994 C799.5 463.49999999999994, 799.5 476.99999999999994, 808.5 485.99999999999994 L840 503.99999999999994 L871.5 485.99999999999994 C880.5 476.99999999999994, 880.5 463.49999999999994, 871.5 454.49999999999994 C862.5 445.49999999999994, 840 449.99999999999994, 840 463.49999999999994Z" fill="url(#g2)" opacity="0.9"/></g><text x="600" y="640" text-anchor="middle" fill="rgba(255,255,255,0.12)" font-family="'Segoe UI','Helvetica Neue',Arial,sans-serif" font-size="18" font-weight="300" letter-spacing="3">ПЕДИЈАТРИЈА</text><circle cx="575" cy="653" r="2.5" fill="rgba(255,255,255,0.1)"/><circle cx="600" cy="653" r="2.5" fill="rgba(255,255,255,0.13)"/><circle cx="625" cy="653" r="2.5" fill="rgba(255,255,255,0.16)"/></svg>