<svg xmlns="http://www.w3.org/2000/svg" width="1200" height="675" viewBox="0 0 1200 675"><defs><linearGradient id="g" x1="0%" y1="0%" x2="100%" y2="100%"><stop offset="0%" style="stop-color:#1abc9c"/><stop offset="100%" style="stop-color:#5df0d0"/></linearGradient><linearGradient id="g2" x1="100%" y1="0%" x2="0%" y2="100%"><stop offset="0%" style="stop-color:#5df0d0"/><stop offset="100%" style="stop-color:#1abc9c"/></linearGradient><linearGradient id="ol" x1="0%" y1="0%" x2="0%" y2="100%"><stop offset="0%" style="stop-color:rgba(255,255,255,0.12)"/><stop offset="100%" style="stop-color:rgba(0,0,0,0.08)"/></linearGradient></defs><rect width="1200" height="675" fill="url(#g)"/><rect width="1200" height="675" fill="url(#ol)"/><circle cx="96" cy="54" r="300" fill="rgba(255,255,255,0.03)"/><circle cx="1104" cy="621" r="360" fill="rgba(255,255,255,0.03)"/><circle cx="1080" cy="54" r="120" fill="rgba(255,255,255,0.03)"/><circle cx="120" cy="607.5" r="144" fill="rgba(255,255,255,0.03)"/><g><ellipse cx="240" cy="270" rx="22" ry="13.75" fill="none" stroke="url(#g)" stroke-width="3" opacity="0.8"/>
  <circle cx="240" cy="270" r="6.6" fill="url(#g)" opacity="0.6"/>
  <circle cx="240" cy="270" r="2.2" fill="rgba(255,255,255,0.5)"/></g><g><path d="M600 231.5 C567 231.5, 550.5 253.5, 550.5 270 C550.5 281, 561.5 292, 572.5 297.5 C567 308.5, 572.5 319.5, 583.5 319.5 C589 319.5, 594.5 314, 600 308.5 C605.5 314, 611 319.5, 616.5 319.5 C627.5 319.5, 633 308.5, 627.5 297.5 C638.5 292, 649.5 281, 649.5 270 C649.5 253.5, 633 231.5, 600 231.5Z" fill="url(#g2)" opacity="0.85"/>
  <path d="M583.5 253.5 L616.5 286.5 M616.5 253.5 L583.5 286.5" stroke="url(#g)" stroke-width="2" opacity="0.3" stroke-linecap="round"/></g><g><path d="M960 259 C960 242.5, 932.5 237, 921.5 248 C910.5 259, 910.5 275.5, 921.5 286.5 L960 308.5 L998.5 286.5 C1009.5 275.5, 1009.5 259, 998.5 248 C987.5 237, 960 242.5, 960 259Z" fill="url(#g2)" opacity="0.9"/></g><text x="600" y="640" text-anchor="middle" fill="rgba(255,255,255,0.12)" font-family="'Segoe UI','Helvetica Neue',Arial,sans-serif" font-size="18" font-weight="300" letter-spacing="3">ПСИХИЈАТРИЈА</text><circle cx="575" cy="653" r="2.5" fill="rgba(255,255,255,0.1)"/><circle cx="600" cy="653" r="2.5" fill="rgba(255,255,255,0.13)"/><circle cx="625" cy="653" r="2.5" fill="rgba(255,255,255,0.16)"/></svg>