<svg xmlns="http://www.w3.org/2000/svg" width="1200" height="675" viewBox="0 0 1200 675"><defs><linearGradient id="g" x1="0%" y1="0%" x2="100%" y2="100%"><stop offset="0%" style="stop-color:#e74c3c"/><stop offset="100%" style="stop-color:#c0392b"/></linearGradient><linearGradient id="g2" x1="100%" y1="0%" x2="0%" y2="100%"><stop offset="0%" style="stop-color:#c0392b"/><stop offset="100%" style="stop-color:#f1948a"/></linearGradient><linearGradient id="ol" x1="0%" y1="0%" x2="0%" y2="100%"><stop offset="0%" style="stop-color:rgba(255,255,255,0.12)"/><stop offset="100%" style="stop-color:rgba(0,0,0,0.08)"/></linearGradient></defs><rect width="1200" height="675" fill="url(#g)"/><rect width="1200" height="675" fill="url(#ol)"/><circle cx="96" cy="54" r="300" fill="rgba(255,255,255,0.03)"/><circle cx="1104" cy="621" r="360" fill="rgba(255,255,255,0.03)"/><circle cx="1080" cy="54" r="120" fill="rgba(255,255,255,0.03)"/><circle cx="120" cy="607.5" r="144" fill="rgba(255,255,255,0.03)"/><g transform="translate(-80, -50)"><path d="M349.8 214.5 Q344.7 244.25, 347.25 269.75 L362.55 274 L372.75 269.75 Q375.3 244.25, 370.2 214.5 Z" fill="url(#g)" opacity="0.85"/>
  <rect x="356.175" y="223" width="7.6499999999999995" height="6.375" rx="2" fill="rgba(255,255,255,0.3)"/></g><g transform="translate(-80, 50)"><rect x="330.25" y="291.5" width="59.49999999999999" height="17" rx="8.5" fill="url(#g2)" opacity="0.8"/>
  <circle cx="330.25" cy="300" r="11.05" fill="url(#g2)" opacity="0.7"/>
  <circle cx="389.75" cy="300" r="11.05" fill="url(#g2)" opacity="0.7"/></g><text x="600" y="640" text-anchor="middle" fill="rgba(255,255,255,0.12)" font-family="'Segoe UI','Helvetica Neue',Arial,sans-serif" font-size="18" font-weight="300" letter-spacing="3">СТОМАТОЛОГИЈА</text><circle cx="575" cy="653" r="2.5" fill="rgba(255,255,255,0.1)"/><circle cx="600" cy="653" r="2.5" fill="rgba(255,255,255,0.13)"/><circle cx="625" cy="653" r="2.5" fill="rgba(255,255,255,0.16)"/></svg>