<svg xmlns="http://www.w3.org/2000/svg" width="1200" height="675" viewBox="0 0 1200 675"><defs><linearGradient id="g" x1="0%" y1="0%" x2="100%" y2="100%"><stop offset="0%" style="stop-color:#e74c3c"/><stop offset="100%" style="stop-color:#ff8a80"/></linearGradient><linearGradient id="g2" x1="100%" y1="0%" x2="0%" y2="100%"><stop offset="0%" style="stop-color:#ff8a80"/><stop offset="100%" style="stop-color:#e74c3c"/></linearGradient><linearGradient id="ol" x1="0%" y1="0%" x2="0%" y2="100%"><stop offset="0%" style="stop-color:rgba(255,255,255,0.12)"/><stop offset="100%" style="stop-color:rgba(0,0,0,0.08)"/></linearGradient></defs><rect width="1200" height="675" fill="url(#g)"/><rect width="1200" height="675" fill="url(#ol)"/><circle cx="96" cy="54" r="300" fill="rgba(255,255,255,0.03)"/><circle cx="1104" cy="621" r="360" fill="rgba(255,255,255,0.03)"/><circle cx="1080" cy="54" r="120" fill="rgba(255,255,255,0.03)"/><circle cx="120" cy="607.5" r="144" fill="rgba(255,255,255,0.03)"/><g transform="translate(80, -50)"><path d="M860 200 L900 225 L900 260 Q900 285, 860 300 Q820 285, 820 260 L820 225 Z" fill="none" stroke="url(#g)" stroke-width="3" opacity="0.85"/>
  <path d="M845 250 L855 262 L875 242" fill="none" stroke="url(#g)" stroke-width="3" stroke-linecap="round" stroke-linejoin="round" opacity="0.85"/></g><g transform="translate(-100, 60)"><path d="M343.28 263.2 Q339.92 282.8, 341.6 299.6 L351.68 302.4 L358.4 299.6 Q360.08 282.8, 356.72 263.2 Z" fill="url(#g2)" opacity="0.85"/>
  <rect x="347.48" y="268.8" width="5.04" height="4.2" rx="2" fill="rgba(255,255,255,0.3)"/></g><text x="600" y="640" text-anchor="middle" fill="rgba(255,255,255,0.12)" font-family="'Segoe UI','Helvetica Neue',Arial,sans-serif" font-size="18" font-weight="300" letter-spacing="3">СТОМАТОЛОГИЈА</text><circle cx="575" cy="653" r="2.5" fill="rgba(255,255,255,0.1)"/><circle cx="600" cy="653" r="2.5" fill="rgba(255,255,255,0.13)"/><circle cx="625" cy="653" r="2.5" fill="rgba(255,255,255,0.16)"/></svg>