<svg xmlns="http://www.w3.org/2000/svg" width="1200" height="675" viewBox="0 0 1200 675"><defs><linearGradient id="g" x1="0%" y1="0%" x2="100%" y2="100%"><stop offset="0%" style="stop-color:#27ae60"/><stop offset="100%" style="stop-color:#27ae60"/></linearGradient><linearGradient id="g2" x1="100%" y1="0%" x2="0%" y2="100%"><stop offset="0%" style="stop-color:#27ae60"/><stop offset="100%" style="stop-color:#1e8449"/></linearGradient><linearGradient id="ol" x1="0%" y1="0%" x2="0%" y2="100%"><stop offset="0%" style="stop-color:rgba(255,255,255,0.12)"/><stop offset="100%" style="stop-color:rgba(0,0,0,0.08)"/></linearGradient></defs><rect width="1200" height="675" fill="url(#g)"/><rect width="1200" height="675" fill="url(#ol)"/><circle cx="96" cy="54" r="300" fill="rgba(255,255,255,0.03)"/><circle cx="1104" cy="621" r="360" fill="rgba(255,255,255,0.03)"/><circle cx="1080" cy="54" r="120" fill="rgba(255,255,255,0.03)"/><circle cx="120" cy="607.5" r="144" fill="rgba(255,255,255,0.03)"/><g><circle cx="600" cy="189.00000000000003" r="22.75" fill="none" stroke="url(#g)" stroke-width="3" opacity="0.75"/>
  <circle cx="600" cy="189.00000000000003" r="13.65" fill="url(#g)" opacity="0.3"/>
  <path d="M590.25 182.50000000000003 L609.75 195.50000000000003 M590.25 195.50000000000003 L609.75 182.50000000000003" stroke="url(#g)" stroke-width="2" opacity="0.5"/>
  <circle cx="594.8" cy="185.75000000000003" r="4" fill="rgba(255,255,255,0.4)"/>
  <circle cx="605.2" cy="194.20000000000002" r="3" fill="rgba(255,255,255,0.4)"/></g><g><path d="M600 333.5 Q585 331, 587.5 351 Q587.5 366, 600 368.5 Q612.5 366, 612.5 351 Q615 331, 600 333.5Z" fill="url(#g2)" opacity="0.8"/>
  <path d="M600 333.5 Q602.5 326, 605 328.5" fill="none" stroke="url(#g2)" stroke-width="2" opacity="0.8"/></g><text x="600" y="640" text-anchor="middle" fill="rgba(255,255,255,0.12)" font-family="'Segoe UI','Helvetica Neue',Arial,sans-serif" font-size="18" font-weight="300" letter-spacing="3">ИСХРАНА</text><circle cx="575" cy="653" r="2.5" fill="rgba(255,255,255,0.1)"/><circle cx="600" cy="653" r="2.5" fill="rgba(255,255,255,0.13)"/><circle cx="625" cy="653" r="2.5" fill="rgba(255,255,255,0.16)"/></svg>