<svg xmlns="http://www.w3.org/2000/svg" width="1200" height="675" viewBox="0 0 1200 675"><defs><linearGradient id="g" x1="0%" y1="0%" x2="100%" y2="100%"><stop offset="0%" style="stop-color:#1abc9c"/><stop offset="100%" style="stop-color:#4db6ac"/></linearGradient><linearGradient id="g2" x1="100%" y1="0%" x2="0%" y2="100%"><stop offset="0%" style="stop-color:#4db6ac"/><stop offset="100%" style="stop-color:#1abc9c"/></linearGradient><linearGradient id="ol" x1="0%" y1="0%" x2="0%" y2="100%"><stop offset="0%" style="stop-color:rgba(255,255,255,0.12)"/><stop offset="100%" style="stop-color:rgba(0,0,0,0.08)"/></linearGradient></defs><rect width="1200" height="675" fill="url(#g)"/><rect width="1200" height="675" fill="url(#ol)"/><circle cx="96" cy="54" r="300" fill="rgba(255,255,255,0.03)"/><circle cx="1104" cy="621" r="360" fill="rgba(255,255,255,0.03)"/><circle cx="1080" cy="54" r="120" fill="rgba(255,255,255,0.03)"/><circle cx="120" cy="607.5" r="144" fill="rgba(255,255,255,0.03)"/><g transform="translate(0, -40)"><rect x="589.6" y="137.5" width="20.8" height="78" rx="2" fill="url(#g)" opacity="0.85"/>
  <rect x="580.5" y="215.5" width="39" height="5.2" rx="1" fill="url(#g)" opacity="0.7"/>
  <rect x="580.5" y="225.9" width="39" height="5.2" rx="1" fill="url(#g)" opacity="0.7"/>
  <path d="M600 137.5 L600 118" stroke="url(#g)" stroke-width="2.5" opacity="0.85"/>
  <path d="M561 267.5 L600 118 L639 267.5" fill="none" stroke="url(#g)" stroke-width="2.5" stroke-linecap="round" stroke-linejoin="round" opacity="0.6"/></g><g><rect x="351" y="456.74999999999994" width="18" height="31.499999999999996" rx="4" fill="none" stroke="url(#g2)" stroke-width="3" opacity="0.85"/>
  <line x1="360" y1="463.49999999999994" x2="360" y2="481.49999999999994" stroke="url(#g2)" stroke-width="3" opacity="0.85"/>
  <line x1="354.6" y1="472.49999999999994" x2="365.4" y2="472.49999999999994" stroke="url(#g2)" stroke-width="3" opacity="0.85"/></g><g><rect x="836.4" y="456.74999999999994" width="7.2" height="31.499999999999996" rx="3.6" fill="url(#g2)" opacity="0.8"/>
  <rect x="836.4" y="456.74999999999994" width="7.2" height="15.749999999999998" rx="3.6" fill="url(#g)" opacity="0.6"/></g><text x="600" y="640" text-anchor="middle" fill="rgba(255,255,255,0.12)" font-family="'Segoe UI','Helvetica Neue',Arial,sans-serif" font-size="18" font-weight="300" letter-spacing="3">ФАРМАЦИЈА</text><circle cx="575" cy="653" r="2.5" fill="rgba(255,255,255,0.1)"/><circle cx="600" cy="653" r="2.5" fill="rgba(255,255,255,0.13)"/><circle cx="625" cy="653" r="2.5" fill="rgba(255,255,255,0.16)"/></svg>