<svg xmlns="http://www.w3.org/2000/svg" width="1200" height="675" viewBox="0 0 1200 675"><defs><linearGradient id="g" x1="0%" y1="0%" x2="100%" y2="100%"><stop offset="0%" style="stop-color:#2ecc71"/><stop offset="100%" style="stop-color:#27ae60"/></linearGradient><linearGradient id="g2" x1="100%" y1="0%" x2="0%" y2="100%"><stop offset="0%" style="stop-color:#27ae60"/><stop offset="100%" style="stop-color:#58d68d"/></linearGradient><linearGradient id="ol" x1="0%" y1="0%" x2="0%" y2="100%"><stop offset="0%" style="stop-color:rgba(255,255,255,0.12)"/><stop offset="100%" style="stop-color:rgba(0,0,0,0.08)"/></linearGradient></defs><rect width="1200" height="675" fill="url(#g)"/><rect width="1200" height="675" fill="url(#ol)"/><circle cx="96" cy="54" r="300" fill="rgba(255,255,255,0.03)"/><circle cx="1104" cy="621" r="360" fill="rgba(255,255,255,0.03)"/><circle cx="1080" cy="54" r="120" fill="rgba(255,255,255,0.03)"/><circle cx="120" cy="607.5" r="144" fill="rgba(255,255,255,0.03)"/><g><path d="M240 260 C240 245, 215 240, 205 250 C195 260, 195 275, 205 285 L240 305 L275 285 C285 275, 285 260, 275 250 C265 240, 240 245, 240 260Z" fill="url(#g)" opacity="0.9"/></g><g transform="translate(0, -10)"><circle cx="585" cy="256.5" r="9" fill="none" stroke="url(#g2)" stroke-width="3" opacity="0.85"/>
  <circle cx="615" cy="256.5" r="9" fill="none" stroke="url(#g2)" stroke-width="3" opacity="0.85"/>
  <line x1="576" y1="256.5" x2="585" y2="256.5" stroke="url(#g2)" stroke-width="3" opacity="0.85"/>
  <line x1="615" y1="256.5" x2="624" y2="256.5" stroke="url(#g2)" stroke-width="3" opacity="0.85"/></g><g><path d="M960 250 Q975 272.5, 975 280 Q975 290, 960 290 Q945 290, 945 280 Q945 272.5, 960 250Z" fill="url(#g)" opacity="0.7"/></g><text x="600" y="640" text-anchor="middle" fill="rgba(255,255,255,0.12)" font-family="'Segoe UI','Helvetica Neue',Arial,sans-serif" font-size="18" font-weight="300" letter-spacing="3">ФИТНЕС И ПРЕВЕНЦИЈА</text><circle cx="575" cy="653" r="2.5" fill="rgba(255,255,255,0.1)"/><circle cx="600" cy="653" r="2.5" fill="rgba(255,255,255,0.13)"/><circle cx="625" cy="653" r="2.5" fill="rgba(255,255,255,0.16)"/></svg>