<svg xmlns="http://www.w3.org/2000/svg" width="1200" height="675" viewBox="0 0 1200 675"><defs><linearGradient id="g" x1="0%" y1="0%" x2="100%" y2="100%"><stop offset="0%" style="stop-color:#34495e"/><stop offset="100%" style="stop-color:#5d6d7e"/></linearGradient><linearGradient id="g2" x1="100%" y1="0%" x2="0%" y2="100%"><stop offset="0%" style="stop-color:#5d6d7e"/><stop offset="100%" style="stop-color:#1b2838"/></linearGradient><linearGradient id="ol" x1="0%" y1="0%" x2="0%" y2="100%"><stop offset="0%" style="stop-color:rgba(255,255,255,0.12)"/><stop offset="100%" style="stop-color:rgba(0,0,0,0.08)"/></linearGradient></defs><rect width="1200" height="675" fill="url(#g)"/><rect width="1200" height="675" fill="url(#ol)"/><circle cx="96" cy="54" r="300" fill="rgba(255,255,255,0.03)"/><circle cx="1104" cy="621" r="360" fill="rgba(255,255,255,0.03)"/><circle cx="1080" cy="54" r="120" fill="rgba(255,255,255,0.03)"/><circle cx="120" cy="607.5" r="144" fill="rgba(255,255,255,0.03)"/><g transform="translate(100, -10)"><path d="M890 248 C890 215, 835 204, 813 226 C791 248, 791 281, 813 303 L890 347 L967 303 C989 281, 989 248, 967 226 C945 204, 890 215, 890 248Z" fill="url(#g)" opacity="0.9"/></g><g transform="translate(-120, 10)"><rect x="287.6" y="254" width="44.8" height="28.8" rx="3" fill="none" stroke="url(#g2)" stroke-width="2.5" opacity="0.85"/>
  <path d="M294 273.2 L303.6 266.8 L310 273.2 L319.6 263.6" fill="none" stroke="url(#g2)" stroke-width="2" stroke-linecap="round" stroke-linejoin="round" opacity="0.7"/>
  <line x1="303.6" y1="282.8" x2="316.4" y2="282.8" stroke="url(#g2)" stroke-width="2" opacity="0.5"/></g><text x="600" y="640" text-anchor="middle" fill="rgba(255,255,255,0.12)" font-family="'Segoe UI','Helvetica Neue',Arial,sans-serif" font-size="18" font-weight="300" letter-spacing="3">ЈАВНО ЗДРАВЈЕ</text><circle cx="575" cy="653" r="2.5" fill="rgba(255,255,255,0.1)"/><circle cx="600" cy="653" r="2.5" fill="rgba(255,255,255,0.13)"/><circle cx="625" cy="653" r="2.5" fill="rgba(255,255,255,0.16)"/></svg>