<svg xmlns="http://www.w3.org/2000/svg" width="1200" height="675" viewBox="0 0 1200 675"><defs><linearGradient id="g" x1="0%" y1="0%" x2="100%" y2="100%"><stop offset="0%" style="stop-color:#34495e"/><stop offset="100%" style="stop-color:#2c3e50"/></linearGradient><linearGradient id="g2" x1="100%" y1="0%" x2="0%" y2="100%"><stop offset="0%" style="stop-color:#2c3e50"/><stop offset="100%" style="stop-color:#5d6d7e"/></linearGradient><linearGradient id="ol" x1="0%" y1="0%" x2="0%" y2="100%"><stop offset="0%" style="stop-color:rgba(255,255,255,0.12)"/><stop offset="100%" style="stop-color:rgba(0,0,0,0.08)"/></linearGradient></defs><rect width="1200" height="675" fill="url(#g)"/><rect width="1200" height="675" fill="url(#ol)"/><circle cx="96" cy="54" r="300" fill="rgba(255,255,255,0.03)"/><circle cx="1104" cy="621" r="360" fill="rgba(255,255,255,0.03)"/><circle cx="1080" cy="54" r="120" fill="rgba(255,255,255,0.03)"/><circle cx="120" cy="607.5" r="144" fill="rgba(255,255,255,0.03)"/><g><circle cx="240" cy="270" r="15" fill="none" stroke="url(#g)" stroke-width="3" opacity="0.7"/>
  <circle cx="240" cy="270" r="10.5" fill="none" stroke="url(#g)" stroke-width="1.5" opacity="0.4"/>
  <circle cx="240" cy="270" r="5.25" fill="url(#g)" opacity="0.15"/>
  <line x1="225" y1="270" x2="255" y2="270" stroke="url(#g)" stroke-width="1" opacity="0.3"/>
  <line x1="240" y1="255" x2="240" y2="285" stroke="url(#g)" stroke-width="1" opacity="0.3"/></g><g transform="translate(0, -10)"><rect x="591" y="268.5" width="18" height="9" rx="3" fill="url(#g2)" opacity="0.8"/>
  <rect x="598.8" y="220.5" width="2.4" height="48" rx="2" fill="url(#g2)" opacity="0.85"/>
  <path d="M594 220.5 Q600 208.5, 606 220.5" fill="none" stroke="url(#g2)" stroke-width="3" opacity="0.85"/>
  <path d="M576 277.5 L624 277.5" stroke="url(#g2)" stroke-width="3" stroke-linecap="round" opacity="0.6"/>
  <circle cx="600" cy="235.5" r="1.7999999999999998" fill="url(#g)" opacity="0.6"/></g><g><rect x="942.5" y="257.5" width="35" height="22.5" rx="3" fill="none" stroke="url(#g)" stroke-width="2.5" opacity="0.85"/>
  <path d="M947.5 272.5 L955 267.5 L960 272.5 L967.5 265" fill="none" stroke="url(#g)" stroke-width="2" stroke-linecap="round" stroke-linejoin="round" opacity="0.7"/>
  <line x1="955" y1="280" x2="965" y2="280" stroke="url(#g)" stroke-width="2" opacity="0.5"/></g><text x="600" y="640" text-anchor="middle" fill="rgba(255,255,255,0.12)" font-family="'Segoe UI','Helvetica Neue',Arial,sans-serif" font-size="18" font-weight="300" letter-spacing="3">МЕДИЦИНСКИ ТЕХНОЛОГИИ</text><circle cx="575" cy="653" r="2.5" fill="rgba(255,255,255,0.1)"/><circle cx="600" cy="653" r="2.5" fill="rgba(255,255,255,0.13)"/><circle cx="625" cy="653" r="2.5" fill="rgba(255,255,255,0.16)"/></svg>