<svg xmlns="http://www.w3.org/2000/svg" width="1200" height="675" viewBox="0 0 1200 675"><defs><linearGradient id="g" x1="0%" y1="0%" x2="100%" y2="100%"><stop offset="0%" style="stop-color:#3498db"/><stop offset="100%" style="stop-color:#1565c0"/></linearGradient><linearGradient id="g2" x1="100%" y1="0%" x2="0%" y2="100%"><stop offset="0%" style="stop-color:#1565c0"/><stop offset="100%" style="stop-color:#82b1ff"/></linearGradient><linearGradient id="ol" x1="0%" y1="0%" x2="0%" y2="100%"><stop offset="0%" style="stop-color:rgba(255,255,255,0.12)"/><stop offset="100%" style="stop-color:rgba(0,0,0,0.08)"/></linearGradient></defs><rect width="1200" height="675" fill="url(#g)"/><rect width="1200" height="675" fill="url(#ol)"/><circle cx="96" cy="54" r="300" fill="rgba(255,255,255,0.03)"/><circle cx="1104" cy="621" r="360" fill="rgba(255,255,255,0.03)"/><circle cx="1080" cy="54" r="120" fill="rgba(255,255,255,0.03)"/><circle cx="120" cy="607.5" r="144" fill="rgba(255,255,255,0.03)"/><g transform="translate(-80, -50)"><circle cx="340" cy="270" r="15" fill="none" stroke="url(#g)" stroke-width="3" opacity="0.85"/>
  <circle cx="340" cy="270" r="6" fill="url(#g)" opacity="0.5"/>
  <path d="M340 230 Q310 200, 300 180 Q290 160, 310 160 Q330 160, 340 180 Q350 160, 370 160 Q390 160, 380 180 Q370 200, 340 230" fill="none" stroke="url(#g)" stroke-width="3" opacity="0.85"/></g><g transform="translate(100, 60)"><circle cx="850" cy="271.6" r="14" fill="url(#g2)" opacity="0.85"/>
  <circle cx="845.8" cy="268.8" r="2.5" fill="rgba(255,255,255,0.7)"/>
  <circle cx="854.2" cy="268.8" r="2.5" fill="rgba(255,255,255,0.7)"/>
  <path d="M846.5 277.2 Q850 282.8, 853.5 277.2" fill="none" stroke="rgba(255,255,255,0.7)" stroke-width="2" stroke-linecap="round"/>
  <path d="M833.2 296.8 Q850 305.2, 866.8 296.8" fill="none" stroke="url(#g2)" stroke-width="2.5" opacity="0.6"/></g><text x="600" y="640" text-anchor="middle" fill="rgba(255,255,255,0.12)" font-family="'Segoe UI','Helvetica Neue',Arial,sans-serif" font-size="18" font-weight="300" letter-spacing="3">ПЕДИЈАТРИЈА</text><circle cx="575" cy="653" r="2.5" fill="rgba(255,255,255,0.1)"/><circle cx="600" cy="653" r="2.5" fill="rgba(255,255,255,0.13)"/><circle cx="625" cy="653" r="2.5" fill="rgba(255,255,255,0.16)"/></svg>