<svg xmlns="http://www.w3.org/2000/svg" width="1200" height="675" viewBox="0 0 1200 675"><defs><linearGradient id="g" x1="0%" y1="0%" x2="100%" y2="100%"><stop offset="0%" style="stop-color:#2980b9"/><stop offset="100%" style="stop-color:#5499c7"/></linearGradient><linearGradient id="g2" x1="100%" y1="0%" x2="0%" y2="100%"><stop offset="0%" style="stop-color:#5499c7"/><stop offset="100%" style="stop-color:#0d47a1"/></linearGradient><linearGradient id="ol" x1="0%" y1="0%" x2="0%" y2="100%"><stop offset="0%" style="stop-color:rgba(255,255,255,0.12)"/><stop offset="100%" style="stop-color:rgba(0,0,0,0.08)"/></linearGradient></defs><rect width="1200" height="675" fill="url(#g)"/><rect width="1200" height="675" fill="url(#ol)"/><circle cx="96" cy="54" r="300" fill="rgba(255,255,255,0.03)"/><circle cx="1104" cy="621" r="360" fill="rgba(255,255,255,0.03)"/><circle cx="1080" cy="54" r="120" fill="rgba(255,255,255,0.03)"/><circle cx="120" cy="607.5" r="144" fill="rgba(255,255,255,0.03)"/><g><path d="M758 237 Q813 253.5, 802 270 Q769 286.5, 758 303" fill="none" stroke="url(#g)" stroke-width="3" opacity="0.85"/>
  <path d="M802 237 Q747 253.5, 758 270 Q791 286.5, 802 303" fill="none" stroke="url(#g)" stroke-width="3" opacity="0.85"/>
  <line x1="758" y1="237" x2="802" y2="237" stroke="url(#g)" stroke-width="2" opacity="0.5"/>
  <line x1="758" y1="303" x2="802" y2="303" stroke="url(#g)" stroke-width="2" opacity="0.5"/></g><g><rect x="501.75000000000006" y="367.6025403784439" width="16.5" height="8.25" rx="3" fill="url(#g2)" opacity="0.8"/>
  <rect x="508.90000000000003" y="323.6025403784439" width="2.2" height="44" rx="2" fill="url(#g2)" opacity="0.85"/>
  <path d="M504.50000000000006 323.6025403784439 Q510.00000000000006 312.6025403784439, 515.5 323.6025403784439" fill="none" stroke="url(#g2)" stroke-width="3" opacity="0.85"/>
  <path d="M488.00000000000006 375.8525403784439 L532 375.8525403784439" stroke="url(#g2)" stroke-width="3" stroke-linecap="round" opacity="0.6"/>
  <circle cx="510.00000000000006" cy="337.3525403784439" r="1.65" fill="url(#g)" opacity="0.6"/></g><g><path d="M509.9999999999999 161.39745962155615 Q526.4999999999999 186.14745962155615, 526.4999999999999 194.39745962155615 Q526.4999999999999 205.39745962155615, 509.9999999999999 205.39745962155615 Q493.4999999999999 205.39745962155615, 493.4999999999999 194.39745962155615 Q493.4999999999999 186.14745962155615, 509.9999999999999 161.39745962155615Z" fill="url(#g2)" opacity="0.7"/></g><text x="600" y="640" text-anchor="middle" fill="rgba(255,255,255,0.12)" font-family="'Segoe UI','Helvetica Neue',Arial,sans-serif" font-size="18" font-weight="300" letter-spacing="3">ИМУНОЛОГИЈА</text><circle cx="575" cy="653" r="2.5" fill="rgba(255,255,255,0.1)"/><circle cx="600" cy="653" r="2.5" fill="rgba(255,255,255,0.13)"/><circle cx="625" cy="653" r="2.5" fill="rgba(255,255,255,0.16)"/></svg>