<svg xmlns="http://www.w3.org/2000/svg" width="1200" height="675" viewBox="0 0 1200 675"><defs><linearGradient id="g" x1="0%" y1="0%" x2="100%" y2="100%"><stop offset="0%" style="stop-color:#e67e22"/><stop offset="100%" style="stop-color:#d35400"/></linearGradient><linearGradient id="g2" x1="100%" y1="0%" x2="0%" y2="100%"><stop offset="0%" style="stop-color:#d35400"/><stop offset="100%" style="stop-color:#f39c12"/></linearGradient><linearGradient id="ol" x1="0%" y1="0%" x2="0%" y2="100%"><stop offset="0%" style="stop-color:rgba(255,255,255,0.12)"/><stop offset="100%" style="stop-color:rgba(0,0,0,0.08)"/></linearGradient></defs><rect width="1200" height="675" fill="url(#g)"/><rect width="1200" height="675" fill="url(#ol)"/><circle cx="96" cy="54" r="300" fill="rgba(255,255,255,0.03)"/><circle cx="1104" cy="621" r="360" fill="rgba(255,255,255,0.03)"/><circle cx="1080" cy="54" r="120" fill="rgba(255,255,255,0.03)"/><circle cx="120" cy="607.5" r="144" fill="rgba(255,255,255,0.03)"/><g transform="translate(-100, -10)"><rect x="293.5" y="292" width="33" height="16.5" rx="3" fill="url(#g)" opacity="0.8"/>
  <rect x="307.8" y="204" width="4.4" height="88.00000000000001" rx="2" fill="url(#g)" opacity="0.85"/>
  <path d="M299 204 Q310 182, 321 204" fill="none" stroke="url(#g)" stroke-width="3" opacity="0.85"/>
  <path d="M266 308.5 L354 308.5" stroke="url(#g)" stroke-width="3" stroke-linecap="round" opacity="0.6"/>
  <circle cx="310" cy="231.5" r="3.3000000000000003" fill="url(#g2)" opacity="0.6"/></g><g transform="translate(120, 10)"><ellipse cx="860" cy="270" rx="19.2" ry="11.52" fill="none" stroke="url(#g2)" stroke-width="3" opacity="0.8" transform="rotate(30, 860, 270)"/>
  <circle cx="869.6" cy="264.24" r="3" fill="url(#g2)" opacity="0.5"/>
  <circle cx="854.24" cy="277.68" r="2.5" fill="url(#g2)" opacity="0.5"/>
  <circle cx="867.68" cy="273.84" r="2" fill="url(#g2)" opacity="0.5"/></g><text x="600" y="640" text-anchor="middle" fill="rgba(255,255,255,0.12)" font-family="'Segoe UI','Helvetica Neue',Arial,sans-serif" font-size="18" font-weight="300" letter-spacing="3">ИНФЕКТИВНИ БОЛЕСТИ</text><circle cx="575" cy="653" r="2.5" fill="rgba(255,255,255,0.1)"/><circle cx="600" cy="653" r="2.5" fill="rgba(255,255,255,0.13)"/><circle cx="625" cy="653" r="2.5" fill="rgba(255,255,255,0.16)"/></svg>