<svg xmlns="http://www.w3.org/2000/svg" width="1200" height="675" viewBox="0 0 1200 675"><defs><linearGradient id="g" x1="0%" y1="0%" x2="100%" y2="100%"><stop offset="0%" style="stop-color:#e74c3c"/><stop offset="100%" style="stop-color:#e74c3c"/></linearGradient><linearGradient id="g2" x1="100%" y1="0%" x2="0%" y2="100%"><stop offset="0%" style="stop-color:#e74c3c"/><stop offset="100%" style="stop-color:#c0392b"/></linearGradient><linearGradient id="ol" x1="0%" y1="0%" x2="0%" y2="100%"><stop offset="0%" style="stop-color:rgba(255,255,255,0.12)"/><stop offset="100%" style="stop-color:rgba(0,0,0,0.08)"/></linearGradient></defs><rect width="1200" height="675" fill="url(#g)"/><rect width="1200" height="675" fill="url(#ol)"/><circle cx="96" cy="54" r="300" fill="rgba(255,255,255,0.03)"/><circle cx="1104" cy="621" r="360" fill="rgba(255,255,255,0.03)"/><circle cx="1080" cy="54" r="120" fill="rgba(255,255,255,0.03)"/><circle cx="120" cy="607.5" r="144" fill="rgba(255,255,255,0.03)"/><g><path d="M600 176.00000000000003 C600 156.50000000000003, 567.5 150.00000000000003, 554.5 163.00000000000003 C541.5 176.00000000000003, 541.5 195.50000000000003, 554.5 208.50000000000003 L600 234.50000000000003 L645.5 208.50000000000003 C658.5 195.50000000000003, 658.5 176.00000000000003, 645.5 163.00000000000003 C632.5 150.00000000000003, 600 156.50000000000003, 600 176.00000000000003Z" fill="url(#g)" opacity="0.9"/></g><g><path d="M500 351 L560 351 L570 336 L585 366 L600 351 L615 351 L630 326 L640 376 L660 351 L675 351 L685 336 L700 366 L710 351" fill="none" stroke="url(#g2)" stroke-width="4" stroke-linecap="round" stroke-linejoin="round" opacity="0.85"/></g><text x="600" y="640" text-anchor="middle" fill="rgba(255,255,255,0.12)" font-family="'Segoe UI','Helvetica Neue',Arial,sans-serif" font-size="18" font-weight="300" letter-spacing="3">КАРДИОЛОГИЈА</text><circle cx="575" cy="653" r="2.5" fill="rgba(255,255,255,0.1)"/><circle cx="600" cy="653" r="2.5" fill="rgba(255,255,255,0.13)"/><circle cx="625" cy="653" r="2.5" fill="rgba(255,255,255,0.16)"/></svg>